<?xml version="1.0" encoding="UTF-8"?>
<svg id="Layer_1" xmlns="http://www.w3.org/2000/svg" xmlns:xlink="http://www.w3.org/1999/xlink" version="1.1" viewBox="0 0 150 30">
  <!-- Generator: Adobe Illustrator 29.8.1, SVG Export Plug-In . SVG Version: 2.1.1 Build 2)  -->
  <defs>
    <style>
      .st0, .st1 {
        fill: #03315f;
      }

      .st2 {
        fill: url(#linear-gradient1);
      }

      .st1 {
        font-family: Raleway-SemiBold, Raleway;
        font-size: 18.2px;
        font-weight: 600;
      }

      .st3 {
        fill: #db8c03;
      }

      .st4 {
        fill: url(#linear-gradient);
      }
    </style>
    <linearGradient id="linear-gradient" x1="2" y1="10.3" x2="25.4" y2="10.3" gradientUnits="userSpaceOnUse">
      <stop offset="0" stop-color="#fcc575"/>
      <stop offset=".5" stop-color="#ef9d25"/>
      <stop offset="1" stop-color="#e8811a"/>
    </linearGradient>
    <linearGradient id="linear-gradient1" x1="3" y1="7.6" x2="21.2" y2="7.6" xlink:href="#linear-gradient"/>
  </defs>
  <path class="st3" d="M91.3,18c0,.6.2,1.1.3,1.7,0,0,0,.1,0,.2-1.1.3-2.2.6-3.3.1-.7-.3-1.1-.9-1.1-1.8,0-2.5,0-4.9,0-7.4,0-.4,0-.8-.2-1.1-.1-.6-.6-1-1.3-1-.3,0-.5,0-.8,0-.6.2-.9.7-1,1.3,0,.3,0,.7,0,1.1.4,0,.8,0,1.2,0,.3,0,.4,0,.4.4,0,.3,0,.7,0,1.1,0,.2,0,.3-.3.3-.3,0-.6,0-.9,0-.3,0-.4,0-.4.4,0,2.2,0,4.3,0,6.5,0,.3,0,.4-.4.4-.5,0-1.1,0-1.6,0-.3,0-.4,0-.4-.4,0-2.1,0-4.2,0-6.3,0-.5,0-.5-.5-.5q-.8,0-.8-.8v-.9c.3,0,.5,0,.8,0,.4,0,.5,0,.5-.4,0-.6,0-1.2.2-1.7.3-.9.9-1.6,1.8-1.9,1.2-.5,2.5-.5,3.8-.1,1.3.4,2.1,1.6,2.1,3,0,2.3,0,4.6,0,6.8,0,.2,0,.3,0,.5.1.7.6,1,1.3.8.2,0,.4,0,.6-.2Z"/>
  <path class="st3" d="M103.4,10.7c.7,0,1.3,0,1.9,0,0,0,.2.1.3.2.4.9.7,1.8,1.1,2.7.5,1.3,1,2.6,1.5,4,0,0,0,.2.2.3,0-.1.2-.2.2-.3.3-.9.7-1.7,1-2.6,0-.2,0-.5,0-.7-.4-1.1-.9-2.2-1.4-3.4,0,0,0-.2,0-.3.6,0,1.1,0,1.6,0,0,0,.2.1.2.2.3.8.5,1.6.8,2.3,0,.1.1.2.2.4,0,0,0,0,0,0,0-.2.2-.5.3-.7.2-.7.4-1.3.7-2,0,0,.1-.2.2-.2.5,0,1.1,0,1.6,0-.1.4-.3.7-.4,1-.4.9-.8,1.9-1.1,2.8,0,.1,0,.3,0,.4.3.9.7,1.8,1,2.7,0,0,0,.1.2.3.1-.3.2-.5.3-.8.6-1.5,1.2-3.1,1.8-4.6.2-.5.4-1.1.6-1.6,0-.2.2-.3.4-.3.6,0,1.2,0,1.8,0-.2.4-.3.8-.4,1.1-.6,1.5-1.2,3-1.8,4.4-.5,1.2-1,2.4-1.5,3.5,0,.2-.2.3-.4.3-.4,0-.9,0-1.3,0-.2,0-.3,0-.4-.3-.5-1.2-.9-2.4-1.4-3.6,0,0,0-.2-.1-.3,0,0,0,0,0,0,0,.2-.2.4-.3.7-.4,1.1-.8,2.1-1.2,3.2,0,.2-.2.3-.4.3-.4,0-.9,0-1.3,0-.2,0-.3,0-.3-.2-.8-2-1.6-4-2.5-5.9-.4-1-.8-1.9-1.2-2.9,0,0,0-.2-.1-.3Z"/>
  <path class="st0" d="M79,10.6c-.6.7-1.2,1.4-1.8,2.1-.5.6-1,1.2-1.5,1.7-.1.2-.1.3,0,.4,1.1,1.6,2.3,3.3,3.4,4.9,0,0,.1.2.2.3-.5,0-.9,0-1.4,0-.4,0-.8,0-1.1,0-.3-.1-.4-.5-.6-.8-.7-1-1.4-2-2-3,0,0-.1-.1-.2-.3-.2.2-.4.4-.6.6-.6.4-.8,1-.7,1.7,0,.6,0,1.1,0,1.7,0,0,0,0,0,.1h-2.3c0-.1,0-.2,0-.4,0-4.2,0-8.3,0-12.5,0-.3,0-.4.4-.3.7,0,1.3,0,2,0v8.1c.1-.1.2-.2.3-.2,1.2-1.3,2.3-2.6,3.5-3.9,0,0,.2-.1.2-.1.8,0,1.5,0,2.4,0Z"/>
  <path class="st0" d="M29.1,18.8c.3-.5.6-1,.8-1.4.5.3,1.1.6,1.6.8.7.3,1.4.4,2.2.3.6,0,1.1-.4,1.1-.9,0-.5-.1-.8-.6-1-.9-.3-1.7-.6-2.6-.8-.4-.1-.7-.3-1.1-.4-1-.5-1.3-1.3-1.2-2.3.2-1.2.9-2,2-2.4,1.9-.6,3.7-.3,5.2.9,0,0,0,0,0,.1-.3.5-.6.9-.9,1.4-.7-.5-1.4-.9-2.2-1-.4,0-.9,0-1.3,0-.5.1-.7.4-.7.9,0,.5,0,.7.6.9.6.2,1.2.4,1.8.6.6.2,1.2.4,1.7.6,1.4.7,1.9,2.3,1,3.6-.5.8-1.3,1.2-2.2,1.3-1.8.3-3.5,0-5.1-1.1-.1,0-.2-.2-.3-.3Z"/>
  <path class="st3" d="M126.8,11.8c-.3.4-.5.7-.7,1.1-.1.2-.2.2-.4,0-.8-.6-1.7-.9-2.6-.9-.3,0-.6,0-.8.2-.4.2-.6.5-.6.9,0,.5.2.8.6.9.7.2,1.3.4,2,.6.6.2,1.3.5,1.9.8.9.4,1.2,1.5,1,2.5-.3,1.3-1.3,2-2.5,2.2-1.8.3-3.5,0-5-1q-.4-.3-.2-.7c.2-.3.4-.6.6-1,.2.1.4.3.7.4.9.5,1.9.9,3,.8.3,0,.5-.1.7-.2.4-.2.5-.6.5-1,0-.4-.3-.6-.6-.8-.7-.2-1.4-.4-2.1-.7-.6-.2-1.2-.4-1.8-.7-1-.5-1.2-1.5-.9-2.5.3-1.2,1.2-1.8,2.3-2.1,1.7-.4,3.2-.2,4.6.8,0,0,0,0,.1.1,0,0,0,0,.1.1Z"/>
  <path class="st0" d="M62.2,10.6h2.1v1.9c.9-1.2,1.8-2.2,3.4-2.1v2.1c-.4,0-.9.1-1.3.2-.7.2-1.3.5-1.7,1.2,0,.2-.1.4-.2.5,0,1.7,0,3.4,0,5.1,0,.1,0,.2,0,.3,0,0-.2,0-.3,0-.6,0-1.2,0-1.9,0-.2,0-.3,0-.3-.3,0-3,0-6,0-9,0,0,0-.1,0-.2Z"/>
  <path class="st0" d="M48.2,12.3c-1.7-2.4-5.1-2.5-6.6-.2,0,0,0,0-.2.1v-1.6h-2v13.3h2.4v-5.4s0,0,0,0c0,0,0,0,.1.1,1.3,2,4.2,2.2,5.8.5,1.7-1.7,1.9-4.8.5-6.8ZM46,17.3c-1,1.2-2.7,1.2-3.7,0-.4-.5-.7-1-.6-1.6,0,0,0-.1,0-.2,0-.1,0-.2,0-.3,0-.1,0-.2,0-.4,0,0,0,0,0-.1-.1-1,.5-1.6,1.3-2,1.5-.7,3.5.3,3.6,2.3,0,.8-.1,1.6-.7,2.3Z"/>
  <path class="st0" d="M60,18.3c0,0,0-.2-.1-.2-.4-.1-.5-.4-.5-.8,0-1.1,0-2.1,0-3.2,0-1.4-.6-2.6-1.9-3.2-2.1-.9-4.2-.5-6.1.6,0,0-.1.1,0,.2.2.5.4.9.7,1.4,0,0,.2,0,.2-.1.9-.6,1.8-1,2.9-.9,1.6,0,2.2,1.1,2,2.5-.1,0-.2,0-.3,0-1.4-.4-2.7-.4-4.1.1-1.2.5-1.9,1.5-1.9,2.7,0,1.2.8,2.2,2,2.7,1.5.6,3.4,0,4.5-1.2,0,0,.2-.2.3-.3,0,.2,0,.4,0,.5,0,.6.5,1.1,1,1.1.4,0,.9,0,1.3,0,0,0,.2-.1.2-.2,0-.5,0-1.1,0-1.6ZM56,18.2c-.7.4-1.4.5-2.1.3-.6-.2-1-.7-1-1.3,0-.6.3-1.1.9-1.3.8-.4,1.6-.3,2.4-.1,0,0,0,0,.1,0q.7.2.7.9c.2.7-.4,1.1-1,1.5Z"/>
  <path class="st3" d="M97.7,10.5c-2.9,0-5,2.2-5,4.8,0,2.6,2,4.9,4.8,4.9,3,0,5-2.2,5-4.9,0-2.7-2.1-4.9-4.8-4.9ZM98.8,18c-1.2.7-2.8.3-3.4-1.2-.5-1-.4-2,0-3,.5-.9,1.2-1.4,2.3-1.3,1.1,0,1.8.7,2.2,1.6.2.4.2.8.3,1.1,0,1.3-.4,2.2-1.4,2.8Z"/>
  <path class="st4" d="M25.4,2c-.4,1.1-.7,2.3-1.1,3.4-.7,1.9-1.6,3.6-2.8,5.2-1.3,1.7-2.8,3.2-4.6,4.4-1.8,1.2-3.7,2.1-5.7,2.7-1.7.5-3.4.8-5.2.9-1,0-2,0-3,.1-.2,0-.4,0-.5-.3-.4-.6-.5-1.2-.5-1.8,0-.8.1-1.7.2-2.5,0-.3.1-.3.4-.3,1.1,0,2.2.2,3.2.2,1.3,0,2.7-.2,4-.3,1.6-.2,3.1-.6,4.6-1.1,2.2-.8,4.2-1.9,6-3.5,1.7-1.5,3-3.2,4.1-5.3.3-.6.5-1.1.8-1.7,0,0,0,0,.1,0Z"/>
  <path class="st0" d="M22.8,11.5c-.2.8-.5,1.7-.8,2.5-.8,2.1-1.9,4-3.5,5.6-1.6,1.6-3.5,2.7-5.6,3.4-1.7.6-3.4.9-5.1.9-.4,0-.8,0-1.2,0-.6,0-1.1-.2-1.5-.5-1-.8-1.4-1.9-1.6-3.1.2,0,.3,0,.5,0,3.5.3,6.9,0,10.2-1.1,3.1-1.1,5.6-2.8,7.4-5.6.4-.6.7-1.3,1-1.9,0,0,0-.1,0-.2,0,0,0,0,0,0Z"/>
  <path class="st2" d="M3,11.9c.8-3.8,3.6-7.1,7.5-8.3,4.7-1.4,8.7.6,10.7,2.6-.6.5-1.3,1.1-1.9,1.6,0,0-.2,0-.3,0-.8-.5-1.7-1-2.6-1.2-.7-.2-1.3-.2-2-.3-1-.2-2.1,0-3.1.2-1.5.4-2.9,1.1-4,2.2-.9.9-1.7,1.9-2.2,3-.1.2-.2.3-.5.3-.5,0-1,0-1.6,0Z"/>
  <path class="st0" d="M13.2,26.6c2.3-.7,4-2.1,5.7-3.8,2.2-2.2,4-4.6,5.7-7.2,0,0,0-.1.1-.2,0,0,0,0,0,0-.3,2.7-1.1,5.2-2.8,7.3-1.4,1.7-3.1,2.7-5.1,3.4-1.2.4-2.4.5-3.6.5Z"/>
  <text class="st1" transform="translate(128.3 20.1)"><tspan x="0" y="0">.ai</tspan></text>
</svg>